<?xml version="1.0" encoding="UTF-8" standalone="no"?>
<svg width="109px" height="111px" viewBox="0 0 109 111" version="1.1" xmlns="http://www.w3.org/2000/svg" xmlns:xlink="http://www.w3.org/1999/xlink">
    <!-- Generator: Sketch 42 (36781) - http://www.bohemiancoding.com/sketch -->
    <title>Logo</title>
    <desc>Created with Sketch.</desc>
    <defs></defs>
    <g id="Page-1" stroke="none" stroke-width="1" fill="none" fill-rule="evenodd">
        <g id="Artboard-Copy" transform="translate(-148.000000, -20.000000)">
            <g id="Logo" transform="translate(148.000000, 20.000000)">
                <path d="M14.2991883,22.5318387 L14.2991883,40.1092437 L18.6463263,40.1092437 L18.6463263,1.0483437 L14.2991883,1.0483437 L14.2991883,18.6257487 L4.71319168,18.6257487 L4.71319168,1.0483437 L0.366053675,1.0483437 L0.366053675,40.1092437 L4.71319168,40.1092437 L4.71319168,22.5318387 L14.2991883,22.5318387 Z M37.3724592,32.2412624 L38.8772378,40.1092437 L43.2243758,40.1092437 L35.7562156,1.0483437 L29.4584388,1.0483437 L21.9902786,40.1092437 L26.0030214,40.1092437 L27.5077999,32.2412624 L37.3724592,32.2412624 Z M32.3565308,5.95885684 L36.7594013,28.5025763 L28.0651253,28.5025763 L32.3565308,5.95885684 Z M54.9839414,0.657734697 C49.0205598,0.657734697 46.2339328,4.5638247 46.2339328,10.478761 L46.2339328,30.6788264 C46.2339328,36.5937627 49.0205598,40.4998527 54.9839414,40.4998527 C61.0030555,40.4998527 63.7896824,36.5937627 63.7896824,30.6788264 L63.7896824,25.8241146 L59.6654746,25.8241146 L59.6654746,30.9020316 C59.6654746,34.4175126 58.2721611,36.5379614 55.0954064,36.5379614 C51.9743843,36.5379614 50.5253383,34.4175126 50.5253383,30.9020316 L50.5253383,10.2555558 C50.5253383,6.74007484 51.9743843,4.61962598 55.0954064,4.61962598 C58.2721611,4.61962598 59.6654746,6.74007484 59.6654746,10.2555558 L59.6654746,13.994242 L63.7896824,13.994242 L63.7896824,10.478761 C63.7896824,4.5638247 61.0030555,0.657734697 54.9839414,0.657734697 L54.9839414,0.657734697 Z M82.7387455,40.1092437 L87.1973486,40.1092437 L76.9982941,18.8489538 L86.8629534,1.0483437 L82.4600828,1.0483437 L72.0938307,19.9091783 L72.0938307,1.0483437 L67.7466927,1.0483437 L67.7466927,40.1092437 L72.0938307,40.1092437 L72.0938307,26.9959416 L74.3788648,23.1456528 L82.7387455,40.1092437 Z" id="Hack" fill="#4D99D3"></path>
                <path d="M4.71319168,63.2407219 L4.71319168,49.0113941 L15.8596994,49.0113941 L15.8596994,45.0495028 L0.366053675,45.0495028 L0.366053675,84.1104028 L4.71319168,84.1104028 L4.71319168,67.2026132 L13.6861304,67.2026132 L13.6861304,63.2407219 L4.71319168,63.2407219 Z M18.9807215,74.6799855 C18.9807215,80.5949218 21.9345461,84.5010118 27.8979277,84.5010118 C33.9170418,84.5010118 36.8708664,80.5949218 36.8708664,74.6799855 L36.8708664,54.4799201 C36.8708664,48.5091825 33.9170418,44.6588938 27.8979277,44.6588938 C21.9345461,44.6588938 18.9807215,48.5091825 18.9807215,54.4799201 L18.9807215,74.6799855 Z M23.272127,54.2567149 C23.272127,50.7412339 24.7769055,48.6207851 27.8979277,48.6207851 C31.0746824,48.6207851 32.5237284,50.7412339 32.5237284,54.2567149 L32.5237284,74.9031906 C32.5237284,78.4744729 31.0746824,80.5391205 27.8979277,80.5391205 C24.7769055,80.5391205 23.272127,78.4744729 23.272127,74.9031906 L23.272127,54.2567149 Z M40.9950742,45.0495028 L40.9950742,84.1104028 L45.3422122,84.1104028 L45.3422122,67.4258184 L48.4075018,67.4258184 C52.0301168,67.4258184 54.0922208,68.8208505 54.0922208,73.2291521 L54.0922208,79.3672935 C54.0922208,81.9899539 54.3151509,82.9943771 54.8167438,84.1104028 L59.2196143,84.1104028 C58.4950913,82.7711719 58.4393588,81.1529346 58.4393588,79.4230948 L58.4393588,73.3407546 C58.4393588,69.1556582 57.1017778,66.2539914 53.5348954,65.1937669 C56.8788477,64.1335425 58.3836262,61.4550808 58.3836262,57.1583818 L58.3836262,53.9777085 C58.3836262,48.1743748 55.8199294,45.0495028 49.6893502,45.0495028 L40.9950742,45.0495028 Z M45.3422122,63.4639271 L45.3422122,49.0113941 L49.5778851,49.0113941 C52.8103724,49.0113941 54.0922208,50.8528365 54.0922208,54.3683175 L54.0922208,58.1070036 C54.0922208,62.3479014 52.0301168,63.4639271 48.5746994,63.4639271 L45.3422122,63.4639271 Z" id="FOR" fill="#4D99D3"></path>
                <path d="M100.735414,78.674422 C104.678285,77.3051267 108.039421,73.4580589 107.522324,68.763332 C107.005225,71.6975359 103.773364,73.6536722 101.76961,73.9144903 C103.191629,65.8943318 106.294216,59.5042873 108.556519,52.3317879 C95.3058875,54.8747652 87.226234,65.5031046 83.735824,79.0656491 C80.6332372,81.4130126 76.6257289,84.6732393 77.272101,89.6939891 C78.3709339,87.3466257 80.8271485,84.6080345 82.7016286,84.2168074 L77.7891993,99.6050791 C75.7854448,103.386942 69.3863594,104.756237 66.0898607,100.90917 C69.0631731,93.4106479 70.2266435,84.0211941 72.87677,76.2618537 C77.9831106,75.9358308 81.0210605,74.5665355 83.0894518,71.8279449 C85.8042153,68.1112862 86.5798619,60.0911283 82.0552559,58.7870372 C73.6524166,56.4396738 71.5193877,66.0247414 69.1278106,71.8279449 C66.0898607,71.4367178 62.987274,71.1758997 60.9835201,69.7414002 C62.0177155,73.262445 65.1203023,74.6969451 68.0936152,76.2618537 C66.2191352,83.9559893 64.9910278,92.3673749 61.9530786,98.8878291 C56.3296397,94.0626931 44.6949387,96.2144427 46.3108694,105.08226 C47.0865161,109.25535 52.5806804,111.472305 57.1699238,110.559441 C60.5956969,109.907396 61.5652547,106.907987 64.2800188,105.08226 C68.9338986,109.190146 77.5952874,107.168806 80.5685997,102.995715 C85.0285682,98.300988 86.321313,86.3033527 88.4543413,81.0217854 C90.0702725,80.6305577 93.3021336,79.9785124 94.5948779,80.3045354 C92.2033008,91.3241025 96.8571812,105.995124 107.1345,98.8226242 L107.716235,96.9316927 C98.1499254,101.169988 99.3780327,86.1729437 100.735414,78.674422 M81.2796093,62.5689008 C83.0894518,66.7419909 79.3404924,71.1106955 74.8158864,71.1106955 C75.5915335,67.133218 77.5952874,62.5036959 81.2796093,62.5689008 M50.189103,103.582556 C49.7366424,99.0182381 57.4284726,100.452738 59.6907753,102.539283 C59.0444032,107.038397 50.5769264,107.625237 50.189103,103.582556 M95.6290739,74.8925584 C93.4314081,74.7621494 91.1691048,76.0010356 89.8763605,75.6098085 C92.3325752,69.8718092 94.4656034,63.807787 100.089042,61.1996055 C98.020651,65.2422865 97.1803669,70.3934454 95.6290739,74.8925584" id="Shape" fill="#CA2035"></path>
            </g>
        </g>
    </g>
</svg>