<?xml version="1.0" encoding="UTF-8" standalone="no"?>
<svg width="239px" height="56px" viewBox="0 0 239 56" version="1.1" xmlns="http://www.w3.org/2000/svg" xmlns:xlink="http://www.w3.org/1999/xlink">
    <!-- Generator: Sketch 45.2 (43514) - http://www.bohemiancoding.com/sketch -->
    <title>PivotalLabs-Logo-OnLight</title>
    <desc>Created with Sketch.</desc>
    <defs></defs>
    <g id="Layout" stroke="none" stroke-width="1" fill="none" fill-rule="evenodd">
        <g id="hfla-web-desktop" transform="translate(-594.000000, -2619.000000)">
            <g id="PivotalLabs-Logo-OnLight" transform="translate(594.000000, 2619.000000)">
                <path d="M38.5751111,34.22 C35.664,34.22 33.1871111,32.3631111 32.2626667,29.7688889 L24.3737778,47.2248889 C24.0084444,48.0337778 24.3697778,48.9973333 25.1777778,49.3662222 L38.5822222,55.4848889 C39.3897778,55.8537778 40.1555556,55.4364444 40.2835556,54.5577778 L43.5817778,31.972 C42.3546667,33.3506667 40.5666667,34.22 38.5751111,34.22" id="Fill-1" fill="#007B67"></path>
                <path d="M53.1155556,36.4031111 L45.224,28.3528889 C44.8924444,31.0248889 42.988,33.2084444 40.4662222,33.9488889 L50.3626667,41.3684444 C50.836,41.7235556 51.4555556,41.5893333 51.7395556,41.0697778 L53.3528889,38.116 C53.6368889,37.5964444 53.5297778,36.8257778 53.1155556,36.4031111" id="Fill-2" fill="#007B67"></path>
                <path d="M46.0768889,7.54844444 L43.8137778,6.80666667 C43.2515556,6.62222222 42.592,6.91244444 42.348,7.45155556 L36.7902222,19.7497778 L18.2528889,0.84 C17.6315556,0.205777778 16.6426667,0.232 16.0551111,0.897777778 L9.29155556,8.56488889 C8.704,9.23066667 8.80488889,10.2111111 9.51511111,10.7435556 L31.8755556,27.508 C31.8817778,23.8133333 34.8786667,20.82 38.5751111,20.82 C41.2613333,20.82 43.5777778,22.4008889 44.6462222,24.6826667 L46.9435556,8.94844444 C47.0293333,8.36266667 46.6391111,7.73288889 46.0768889,7.54844444" id="Fill-3" fill="#007B67"></path>
                <path d="M42.9791111,27.52 C42.9791111,29.952 41.0075556,31.9235556 38.5751111,31.9235556 C36.1431111,31.9235556 34.1715556,29.952 34.1715556,27.52 C34.1715556,25.088 36.1431111,23.1164444 38.5751111,23.1164444 C41.0075556,23.1164444 42.9791111,25.088 42.9791111,27.52" id="Fill-4" fill="#00A490"></path>
                <path d="M63.4053333,22.188 L61.732,19.1213333 C61.4484444,18.6017778 60.7422222,18.2737778 60.1622222,18.392 L42.4004444,22.0186667 C44.1377778,23.2293333 45.2751111,25.2417778 45.2751111,27.52 C45.2751111,28.5115556 45.06,29.4524444 44.6733333,30.2986667 L62.9124444,23.508 C63.4671111,23.3017778 63.6888889,22.7075556 63.4053333,22.188" id="Fill-5" fill="#00A490"></path>
                <path d="M31.8751111,27.52 C31.8751111,26.2097778 32.2515556,24.988 32.9013333,23.9555556 L1.544,30.484 C0.674666667,30.6648889 0.176444444,31.5075556 0.436444444,32.3564444 L3.96311111,43.8746667 C4.22311111,44.7235556 5.11555556,45.1617778 5.94622222,44.8488889 L35.78,33.6102222 C33.4755556,32.5506667 31.8751111,30.2222222 31.8751111,27.52" id="Fill-6" fill="#00A490"></path>
                <path d="M84.2146667,23.2848889 C84.2146667,20.8768889 82.4808889,19.2066667 79.9435556,19.2066667 L74.3231111,19.2066667 L74.3231111,27.3631111 L79.9435556,27.3631111 C82.4808889,27.3631111 84.2146667,25.6933333 84.2146667,23.2848889 Z M71.6582222,38.2497778 L71.6582222,16.8297778 L80.2644444,16.8297778 C84.568,16.8297778 86.9764444,19.7848889 86.9764444,23.2848889 C86.9764444,26.7853333 84.5035556,29.7395556 80.2644444,29.7395556 L74.3231111,29.7395556 L74.3231111,38.2497778 L71.6582222,38.2497778 L71.6582222,38.2497778 Z" id="Fill-7" fill="#030708"></path>
                <path d="M89.3311111,38.2497778 L91.7395556,38.2497778 L91.7395556,22.7386667 L89.3311111,22.7386667 L89.3311111,38.2497778 Z M88.9133333,18.9173333 C88.9133333,18.0186667 89.6515556,17.28 90.5191111,17.28 C91.4177778,17.28 92.1564444,18.0186667 92.1564444,18.9173333 C92.1564444,19.8168889 91.4177778,20.5231111 90.5191111,20.5231111 C89.6515556,20.5231111 88.9133333,19.8168889 88.9133333,18.9173333 L88.9133333,18.9173333 Z" id="Fill-8" fill="#030708"></path>
                <polyline id="Fill-9" fill="#030708" points="100.754667 38.2497778 94.3 22.7386667 96.9017778 22.7386667 102.071556 35.456 107.209778 22.7386667 109.843111 22.7386667 103.388444 38.2497778 100.754667 38.2497778"></polyline>
                <path d="M123.585778,30.4782222 C123.585778,27.3311111 121.755111,24.5057778 118.447556,24.5057778 C115.14,24.5057778 113.277778,27.3311111 113.277778,30.4782222 C113.277778,33.6573333 115.14,36.484 118.447556,36.484 C121.755111,36.484 123.585778,33.6573333 123.585778,30.4782222 Z M110.772889,30.4782222 C110.772889,25.9826667 113.727111,22.3537778 118.447556,22.3537778 C123.168,22.3537778 126.123111,25.9826667 126.123111,30.4782222 C126.123111,34.9742222 123.168,38.6351111 118.447556,38.6351111 C113.727111,38.6351111 110.772889,34.9742222 110.772889,30.4782222 L110.772889,30.4782222 Z" id="Fill-10" fill="#030708"></path>
                <path d="M129.832,35.0066667 L129.832,24.8586667 L127.262667,24.8586667 L127.262667,22.7386667 L129.832,22.7386667 L129.832,18.5 L132.240444,18.5 L132.240444,22.7386667 L135.388,22.7386667 L135.388,24.8586667 L132.240444,24.8586667 L132.240444,34.4928889 C132.240444,35.6493333 132.754222,36.484 133.814667,36.484 C134.488889,36.484 135.131556,36.1946667 135.452,35.8413333 L136.159111,37.64 C135.548444,38.2182222 134.680889,38.6351111 133.268,38.6351111 C130.988,38.6351111 129.832,37.3182222 129.832,35.0066667" id="Fill-11" fill="#030708"></path>
                <path d="M148.899556,34.9742222 L148.899556,32.0524444 C147.968,30.7675556 146.330222,30.1248889 144.628444,30.1248889 C142.380444,30.1248889 140.807111,31.5386667 140.807111,33.5297778 C140.807111,35.488 142.380444,36.9013333 144.628444,36.9013333 C146.330222,36.9013333 147.968,36.2591111 148.899556,34.9742222 Z M148.899556,38.2497778 L148.899556,36.484 C147.614667,37.8964444 145.848444,38.6351111 143.761333,38.6351111 C141.128,38.6351111 138.334222,36.8688889 138.334222,33.4968889 C138.334222,30.0288889 141.128,28.3911111 143.761333,28.3911111 C145.880889,28.3911111 147.647111,29.0657778 148.899556,30.5111111 L148.899556,27.7164444 C148.899556,25.6293333 147.229333,24.4413333 144.982222,24.4413333 C143.118667,24.4413333 141.610222,25.1155556 140.228889,26.5924444 L139.104444,24.9226667 C140.774667,23.1888889 142.765333,22.3537778 145.302667,22.3537778 C148.578667,22.3537778 151.308444,23.8311111 151.308444,27.5884444 L151.308444,38.2497778 L148.899556,38.2497778 L148.899556,38.2497778 Z" id="Fill-12" fill="#030708"></path>
                <polygon id="Fill-13" fill="#030708" points="155.662222 38.2497778 158.071111 38.2497778 158.071111 16.8297778 155.662222 16.8297778"></polygon>
                <polyline id="Fill-14" fill="#030708" points="169.907556 38.2502222 169.907556 16.832 174.467556 16.832 174.467556 34.2364444 183.523111 34.2364444 183.523111 38.2502222 169.907556 38.2502222"></polyline>
                <path d="M195.340889,34.5253333 L195.340889,32.5986667 C194.666222,31.6995556 193.382222,31.2502222 192.065333,31.2502222 C190.46,31.2502222 189.143111,32.0848889 189.143111,33.5942222 C189.143111,35.0391111 190.46,35.8742222 192.065333,35.8742222 C193.382222,35.8742222 194.666222,35.4244444 195.340889,34.5253333 Z M195.340889,38.2502222 L195.340889,36.6448889 C194.280889,37.8968889 192.450667,38.6355556 190.427556,38.6355556 C187.955111,38.6355556 185.032889,36.9657778 185.032889,33.4977778 C185.032889,29.8693333 187.955111,28.4884444 190.427556,28.4884444 C192.482667,28.4884444 194.313333,29.1626667 195.340889,30.3831111 L195.340889,28.2955556 C195.340889,26.7222222 193.992,25.6946667 191.936889,25.6946667 C190.267111,25.6946667 188.725778,26.3048889 187.408889,27.5248889 L185.867556,24.7955556 C187.762222,23.1257778 190.203111,22.3551111 192.643556,22.3551111 C196.175556,22.3551111 199.419111,23.768 199.419111,28.2315556 L199.419111,38.2502222 L195.340889,38.2502222 L195.340889,38.2502222 Z" id="Fill-15" fill="#030708"></path>
                <path d="M210.225778,35.0071111 C212.601778,35.0071111 214.175556,33.2088889 214.175556,30.5115556 C214.175556,27.8142222 212.601778,25.9835556 210.225778,25.9835556 C208.908889,25.9835556 207.399556,26.7542222 206.725333,27.7817778 L206.725333,33.2728889 C207.399556,34.2684444 208.908889,35.0071111 210.225778,35.0071111 Z M202.647111,38.2502222 L202.647111,16.832 L206.725333,16.832 L206.725333,24.7315556 C207.945778,23.1577778 209.679556,22.3551111 211.510222,22.3551111 C215.46,22.3551111 218.382222,25.4377778 218.382222,30.5115556 C218.382222,35.6813333 215.427556,38.6355556 211.510222,38.6355556 C209.647556,38.6355556 207.945778,37.8008889 206.725333,36.2595556 L206.725333,38.2502222 L202.647111,38.2502222 L202.647111,38.2502222 Z" id="Fill-16" fill="#030708"></path>
                <path d="M219.762667,36.2271111 L221.529333,33.3693333 C222.652889,34.4288889 224.964889,35.4884444 226.891556,35.4884444 C228.657778,35.4884444 229.492444,34.7822222 229.492444,33.8191111 C229.492444,31.2502222 220.276444,33.3373333 220.276444,27.236 C220.276444,24.6351111 222.556889,22.3551111 226.634667,22.3551111 C229.268,22.3551111 231.355111,23.2542222 232.896444,24.4746667 L231.259111,27.268 C230.327556,26.2728889 228.561333,25.4697778 226.667111,25.4697778 C225.189778,25.4697778 224.226222,26.1444444 224.226222,27.0111111 C224.226222,29.3231111 233.410222,27.3968889 233.410222,33.6582222 C233.410222,36.484 231.002222,38.6355556 226.699111,38.6355556 C224.001778,38.6355556 221.400444,37.7364444 219.762667,36.2271111" id="Fill-17" fill="#030708"></path>
                <path d="M236.387111,24.6466667 L235.781333,24.6466667 L235.781333,25.4475556 L236.387111,25.4475556 C236.582667,25.4475556 236.796889,25.2893333 236.796889,25.0564444 C236.796889,24.8048889 236.582667,24.6466667 236.387111,24.6466667 Z M236.759111,26.6306667 L236.172889,25.7364444 L235.781333,25.7364444 L235.781333,26.6306667 L235.464889,26.6306667 L235.464889,24.3675556 L236.387111,24.3675556 C236.768889,24.3675556 237.122222,24.6373333 237.122222,25.0564444 C237.122222,25.5595556 236.675556,25.7271111 236.544889,25.7271111 L237.150667,26.6306667 L236.759111,26.6306667 Z M236.218667,23.8177778 C235.287556,23.8177778 234.542667,24.5631111 234.542667,25.4942222 C234.542667,26.4164444 235.287556,27.1706667 236.218667,27.1706667 C237.140889,27.1706667 237.895556,26.4164444 237.895556,25.4942222 C237.895556,24.5631111 237.140889,23.8177778 236.218667,23.8177778 Z M236.218667,27.4684444 C235.129778,27.4684444 234.244889,26.584 234.244889,25.4942222 C234.244889,24.3955556 235.129778,23.52 236.218667,23.52 C237.318222,23.52 238.193333,24.3955556 238.193333,25.4942222 C238.193333,26.584 237.318222,27.4684444 236.218667,27.4684444 L236.218667,27.4684444 Z" id="Fill-18" fill="#030708"></path>
            </g>
        </g>
    </g>
</svg>